<?xml version="1.0" encoding="UTF-8" standalone="no"?><!DOCTYPE svg PUBLIC "-//W3C//DTD SVG 1.1//EN" "http://www.w3.org/Graphics/SVG/1.1/DTD/svg11.dtd"><svg width="100%" height="100%" viewBox="0 0 628 775" version="1.1" xmlns="http://www.w3.org/2000/svg" xmlns:xlink="http://www.w3.org/1999/xlink" xml:space="preserve" xmlns:serif="http://www.serif.com/" style="fill-rule:evenodd;clip-rule:evenodd;stroke-linecap:round;stroke-linejoin:round;stroke-miterlimit:1.5;"><rect id="Artboard5" x="-0" y="-0" width="627.799" height="774.177" style="fill:none;"/><g id="Cherries"><g id="Bottom-Cherry" serif:id="Bottom Cherry"><ellipse cx="303.454" cy="551.354" rx="136.06" ry="134.846" style="fill:#dd4545;stroke:#000;stroke-width:18.77px;"/><circle cx="363.441" cy="495.012" r="29.911" style="fill:#fa9696;"/></g><g id="Top-Cherry" serif:id="Top Cherry"><ellipse cx="194.722" cy="546.666" rx="155.299" ry="153.912" style="fill:#f75959;stroke:#000;stroke-width:18.77px;"/><circle cx="263.19" cy="482.358" r="34.14" style="fill:#fa9696;"/></g></g><g id="Stems"><path d="M358.301,444.137c62.97,-98.569 17.346,-201.763 -47.761,-261.254" style="fill:#635757;fill-opacity:0;stroke:#000;stroke-width:18.77px;"/><path d="M238.74,432.73c73.24,-44.923 130.711,-173.042 71.8,-249.847" style="fill:#6e8e2b;fill-opacity:0;stroke:#000;stroke-width:18.77px;"/><path d="M344.781,436.299c-1.114,6.704 0.358,10.857 5.948,15.194c5.886,4.568 12.475,5.469 19.318,2.795" style="fill-opacity:0;stroke:#000;stroke-width:6.25px;"/><path d="M228.392,420.532c-3.502,6.762 -0.089,12.981 5.501,17.318c6.567,5.08 14.629,6.727 23.006,4.024" style="fill-opacity:0;stroke:#000;stroke-width:6.25px;"/></g><g><path d="M310.328,182.888c94.021,9.51 164.11,-28.119 207.795,-117.755" style="fill:#9ad14b;stroke:#404040;stroke-width:18.75px;"/><path d="M310.328,182.888c40.154,-85.547 108.451,-126.338 207.795,-117.755" style="fill:#90bc42;stroke:#404040;stroke-width:18.75px;"/></g><g><path d="M310.383,182.916c94.022,9.51 164.111,-28.119 207.796,-117.755" style="fill:#9ad14b;stroke:#84b753;stroke-width:18.75px;"/><path d="M310.383,182.916c40.155,-85.547 108.452,-126.338 207.796,-117.755" style="fill:#90bc42;stroke:#84b753;stroke-width:18.75px;"/></g></svg>